<?xml version="1.0" encoding="utf-8"?>
<!-- Generator: Adobe Illustrator 18.1.1, SVG Export Plug-In . SVG Version: 6.00 Build 0)  -->
<svg version="1.1" id="Layer_1" xmlns="http://www.w3.org/2000/svg" xmlns:xlink="http://www.w3.org/1999/xlink" x="0px" y="0px"
	 viewBox="0 0 82.5 44.3333321" enable-background="new 0 0 82.5 44.3333321" xml:space="preserve">
<g display="none">
	<path display="inline" fill="#D98927" d="M48.1603889-57.1733398l-4,8.3734627h-9.4914017l-18,36.3180466H5.2979808l18-36.3180466
		H-1.2420133l4-8.3734627H48.1603889z"/>
	<path display="inline" fill="#333232" d="M70.1603851-39.1733398l-4,8.3734646H26.7579861l4-8.3734646H70.1603851z"/>
	<path display="inline" fill="#333232" d="M61.7579842-20.8552971l-4,8.3734646H18.3555813l4-8.3734646H61.7579842z"/>
	<path display="inline" fill="#333232" d="M79.8615875-57.1733398l-4,8.3734627H45.4591904l4-8.3734627H79.8615875z"/>
</g>
<g display="none">
	<path display="inline" fill="#D98927" d="M35.1603889,50.5181656l-4,8.3734627h-0.4914017l-18,36.3180428H1.2979809l18-36.3180428
		H-5.2420135l4-8.3734627H35.1603889z"/>
	<path display="inline" fill="#333232" d="M66.1603851,68.5181656l-3.9999962,8.3734665H22.7579861l4-8.3734665H66.1603851z"/>
	<path display="inline" fill="#333232" d="M57.7579842,86.8362122l-4,8.3734589h-39.402401l3.999999-8.3734589H57.7579842z"/>
	<path display="inline" fill="#333232" d="M75.8615875,50.5181656l-4,8.3734627H32.4591904l4-8.3734627H75.8615875z"/>
</g>
<g display="none">
	<path display="inline" fill="#D98927" d="M81.6543808-116.6733398l-4,8.3734665H38.1629791l-18,36.3180389H8.7919731l18-36.3180389
		H2.2519786l3.9999998-8.3734665H81.6543808z"/>
	<path display="inline" fill="#333232" d="M73.6543808-98.6733398l-4,8.3734665H30.2519779l4.0000019-8.3734665H73.6543808z"/>
	<path display="inline" fill="#333232" d="M65.251976-80.3553009l-4,8.3734665H21.8495731l4-8.3734665H65.251976z"/>
</g>
<path fill="#D98927" d="M47.9339867,0.8266602l-5.0400009,8.3734646h-9.2249985l-20,34.3180466H2.2979808l20-34.3180466H0.7579867
	l5-8.3734646H47.9339867z"/>
<path fill="#FFFFFF" d="M62.0755882,35.1447067l-4.9151993,8.3734627H17.7579861l4.9120007-8.3734627H62.0755882z"/>
<path fill="#FFFFFF" d="M72.0755844,17.6447048l-4.9151993,8.3734646H27.7579861l4.9120007-8.3734646H72.0755844z"/>
<path fill="#FFFFFF" d="M81.2167892,0.8266602L76.30159,9.2001247H46.8991852l4.9120026-8.3734646H81.2167892z"/>
</svg>
